<svg id="Layer_3" enable-background="new 0 0 64 64" height="512" viewBox="0 0 64 64" width="512" xmlns="http://www.w3.org/2000/svg"><g><path d="m50.782 41.856-13.782-3.627v-2.583c2.984-1.732 5-4.955 5-8.647h1c1.654 0 3-1.346 3-3s-1.346-3-3-3h-1v-1h1c.553 0 1-.447 1-1v-2c0-1.309-.847-2.412-2.018-2.821-.184-4.199-2.536-7.938-6.256-9.922l.267-2.133c.036-.284-.053-.57-.242-.786-.191-.214-.464-.337-.751-.337h-6c-.287 0-.56.123-.75.338-.189.216-.278.502-.242.786l.267 2.133c-3.72 1.984-6.072 5.723-6.256 9.922-1.172.409-2.019 1.512-2.019 2.821v2c0 .553.447 1 1 1h1v1h-1c-1.654 0-3 1.346-3 3s1.346 3 3 3h1c0 3.691 2.016 6.914 5 8.647v2.583l-13.782 3.627c-3.072.807-5.218 3.591-5.218 6.768v13.375c0 .553.447 1 1 1h46c.553 0 1-.447 1-1v-13.375c0-3.177-2.146-5.961-5.218-6.769zm-23.083-1.743 3.594 3.594c.195.195.451.293.707.293s.512-.098.707-.293l3.594-3.594 1.719.453-6.02 6.02-6.02-6.02zm3.301 8.301v12.586h-12v-18.598l4.741-1.248zm2 0 7.259-7.259 4.741 1.247v18.598h-12zm10-25.414c.552 0 1 .448 1 1s-.448 1-1 1h-1v-2zm-9.133-20-.75 6h-2.234l-.75-6zm-5.321 3.426.462 3.698c.062.5.488.876.992.876h4c.504 0 .93-.376.992-.876l.462-3.698c2.622 1.674 4.275 4.455 4.497 7.574h-15.902c.221-3.118 1.874-5.899 4.497-7.574zm-6.546 10.574c0-.552.448-1 1-1h18c.552 0 1 .448 1 1v1h-20zm-1 8c-.552 0-1-.448-1-1s.448-1 1-1h1v2zm3 2v-7h16v7c0 4.411-3.589 8-8 8s-8-3.589-8-8zm8 10c1.045 0 2.052-.163 3-.461v2.047l-3 3-3-3v-2.047c.948.298 1.955.461 3 .461zm-22 11.625c0-2.27 1.532-4.258 3.728-4.835l3.272-.861v18.071h-7zm44 12.375h-7v-18.071l3.272.861c2.196.577 3.728 2.565 3.728 4.835z"/><path d="m42 49h-6c-.553 0-1 .447-1 1v4c0 .553.447 1 1 1h6c.553 0 1-.447 1-1v-4c0-.553-.447-1-1-1zm-1 4h-4v-2h4z"/><path d="m22 55h6c.553 0 1-.447 1-1v-4c0-.553-.447-1-1-1h-6c-.553 0-1 .447-1 1v4c0 .553.447 1 1 1zm1-4h4v2h-4z"/></g></svg>