<svg version="1.1" xmlns="http://www.w3.org/2000/svg" xmlns:xlink="http://www.w3.org/1999/xlink" preserveAspectRatio="xMidYMid meet" viewBox="769 491 266 64"><g data-item-type="text" data-item="Business" id="logo__item--business" class="logo__item">
                <g class="logo__item__inner" transform="translate(833.140625 536.8991288870463) scale(1 1) rotate(0 0 0)">
                    <text data-part-id="logo__item--business" dy="0" dominant-baseline="auto" alignment-baseline="auto" font-family="Montserrat" font-size="32px" fill="#060505" letter-spacing="0" font-weight="bold" font-style="normal" data-font-family="Montserrat" data-font-weight="bold" data-font-style="normal" data-ttf-url="/builder_assets/fontsttf/font-montserrat-bold-normal.ttf" data-font-filename="montserrat-bold-normal">Staff-Resurs</text>
                </g>
            </g><g data-item-type="image" data-item="Image" data-logo-item="" id="logo__item--logo_0" class="logo__item">
    <g class="logo__item__inner" transform="translate(762.3817174242854 491.5) scale(0.423899925937662 0.423899925937662) rotate(0 0 0)">
        
<g>
	<g>
		<rect x="27.9" y="45.6" fill="#5C5C5C" width="29.5" height="0.7" data-part-id="logo__item--logo_0__0"></rect>
	</g>
	<g>
		<rect x="27.9" y="39.3" fill="#5C5C5C" width="17.1" height="0.7" data-part-id="logo__item--logo_0__1"></rect>
	</g>
	<g>
		<rect x="27.9" y="33.1" fill="#5C5C5C" width="29.5" height="0.7" data-part-id="logo__item--logo_0__2"></rect>
	</g>
	<g>
		<rect x="30.4" y="62.4" fill="#5C5C5C" width="16" height="0.7" data-part-id="logo__item--logo_0__3"></rect>
	</g>
	<g>
		<rect x="22.8" y="56.2" fill="#5C5C5C" width="23.6" height="0.7" data-part-id="logo__item--logo_0__4"></rect>
	</g>
	<g>
		<rect x="30.4" y="50" fill="#5C5C5C" width="16" height="0.7" data-part-id="logo__item--logo_0__5"></rect>
	</g>
	<g>
		<rect x="106.2" y="62.8" fill="#5C5C5C" width="16" height="0.7" data-part-id="logo__item--logo_0__6"></rect>
	</g>
	<g>
		<rect x="106.2" y="56.6" fill="#5C5C5C" width="24" height="0.7" data-part-id="logo__item--logo_0__7"></rect>
	</g>
	<g>
		<rect x="106.2" y="50.4" fill="#5C5C5C" width="16" height="0.7" data-part-id="logo__item--logo_0__8"></rect>
	</g>
	<g>
		<rect x="93.2" y="45.1" fill="#5C5C5C" width="29.5" height="0.7" data-part-id="logo__item--logo_0__9"></rect>
	</g>
	<g>
		<rect x="103.9" y="38.9" fill="#5C5C5C" width="18.7" height="0.7" data-part-id="logo__item--logo_0__10"></rect>
	</g>
	<g>
		<rect x="93.2" y="32.7" fill="#5C5C5C" width="29.5" height="0.7" data-part-id="logo__item--logo_0__11"></rect>
	</g>
	<g>
		<rect x="60.3" y="28.3" fill="#5C5C5C" width="29.5" height="0.7" data-part-id="logo__item--logo_0__12"></rect>
	</g>
	<g>
		<rect x="50.2" y="22.1" fill="#5C5C5C" width="49.7" height="0.7" data-part-id="logo__item--logo_0__13"></rect>
	</g>
	<g>
		<rect x="60.3" y="15.8" fill="#5C5C5C" width="29.5" height="0.7" data-part-id="logo__item--logo_0__14"></rect>
	</g>
	<g>
		<rect x="29.6" y="129" fill="#5C5C5C" width="88.5" height="0.7" data-part-id="logo__item--logo_0__15"></rect>
	</g>
	<g>
		<rect x="26.6" y="122.7" fill="#5C5C5C" width="37.1" height="0.7" data-part-id="logo__item--logo_0__16"></rect>
	</g>
	<g>
		<rect x="98.2" y="123.6" fill="#5C5C5C" width="24.8" height="0.7" data-part-id="logo__item--logo_0__17"></rect>
	</g>
	<g>
		<rect x="70.9" y="124" fill="#5C5C5C" width="15.6" height="0.7" data-part-id="logo__item--logo_0__18"></rect>
	</g>
	<g>
		<rect x="29.6" y="116.5" fill="#5C5C5C" width="88.5" height="0.7" data-part-id="logo__item--logo_0__19"></rect>
	</g>
	<g>
		<g>
			<rect x="33.1" y="27.9" fill="#5C5C5C" width="0.7" height="104.8" data-part-id="logo__item--logo_0__20"></rect>
		</g>
		<g>
			<rect x="39.3" y="27.9" fill="#5C5C5C" width="0.7" height="104.8" data-part-id="logo__item--logo_0__21"></rect>
		</g>
	</g>
	<g>
		<rect x="47.4" y="19.1" fill="#5C5C5C" width="0.7" height="119.8" data-part-id="logo__item--logo_0__22"></rect>
	</g>
	<g>
		<rect x="53.6" y="19.1" fill="#5C5C5C" width="0.7" height="113.5" data-part-id="logo__item--logo_0__23"></rect>
	</g>
	<g>
		<rect x="59.8" y="19.1" fill="#5C5C5C" width="0.7" height="113.5" data-part-id="logo__item--logo_0__24"></rect>
	</g>
	<g>
		<rect x="65.8" y="6.2" fill="#5C5C5C" width="0.7" height="137.8" data-part-id="logo__item--logo_0__25"></rect>
	</g>
	<g>
		<rect x="74.8" y="6.2" fill="#5C5C5C" width="0.7" height="126.5" data-part-id="logo__item--logo_0__26"></rect>
	</g>
	<g>
		<rect x="83.5" y="6.2" fill="#5C5C5C" width="0.7" height="126.5" data-part-id="logo__item--logo_0__27"></rect>
	</g>
	<g>
		<rect x="90" y="19.1" fill="#5C5C5C" width="0.7" height="113.5" data-part-id="logo__item--logo_0__28"></rect>
	</g>
	<g>
		<rect x="96.2" y="19.1" fill="#5C5C5C" width="0.7" height="119" data-part-id="logo__item--logo_0__29"></rect>
	</g>
	<g>
		<rect x="102.4" y="19.1" fill="#5C5C5C" width="0.7" height="113.5" data-part-id="logo__item--logo_0__30"></rect>
	</g>
	<g>
		<rect x="110.5" y="27.9" fill="#5C5C5C" width="0.7" height="114.7" data-part-id="logo__item--logo_0__31"></rect>
	</g>
	<g>
		<rect x="116.7" y="27.9" fill="#5C5C5C" width="0.7" height="104.8" data-part-id="logo__item--logo_0__32"></rect>
	</g>
	<g>
		<g>
			<path fill="#39499B" d="M74.1,29.3L62.4,40.2c0,0,0,56.2,0,57.2c-0.6,0-1.5,0-2.1,0c0-1,0-51.9,0-51.9l-12.9,13     c0,0,0,44.2,0,45.2c-0.5,0-1.2,0-1.7,0c0-1,0-38.6,0-38.6L33.2,77.5v37.4H75V28.6L74.1,29.3z" data-part-id="logo__item--logo_0__33"></path>
		</g>
		<g>
			<polygon fill="#5C5C5C" enable-background="new" points="75.8,114.4 75.8,29.7 87.4,40.4 87.4,97.9 90.5,97.9 90.5,46.8      102.4,58.8 102.4,104.3 105.1,104.3 105.1,66.4 116.7,77.7 116.7,114.4    " data-part-id="logo__item--logo_0__34"></polygon>
			<path fill="#00A9DE" d="M75.4,29.7v85.2h41.8V77.5l-12.6-12.4c0,0,0,37.6,0,38.6c-0.5,0-1.2,0-1.7,0c0-1,0-45.2,0-45.2L90,45.6     c0,0,0,50.9,0,51.9c-0.6,0-1.5,0-2.1,0c0-1,0-57.2,0-57.2L75.4,28.6V29.7z" data-part-id="logo__item--logo_0__35"></path>
		</g>
	</g>
</g>

    </g>
</g></svg>