<svg width="186" height="70" viewBox="0 0 186 70" fill="none" xmlns="http://www.w3.org/2000/svg">
<path d="M97.4258 21.0078V25.9297H82.6992V21.0078H97.4258ZM84.7109 9.5625V38H78.3438V9.5625H84.7109ZM101.82 9.5625V38H95.4727V9.5625H101.82ZM118.715 14.9727L111.371 38H104.574L115.102 9.5625H119.398L118.715 14.9727ZM124.809 38L117.445 14.9727L116.684 9.5625H121.039L131.605 38H124.809ZM124.496 27.4141V32.3359H109.672V27.4141H124.496ZM133.969 9.5625H144.887C147.061 9.5625 148.943 9.88802 150.531 10.5391C152.133 11.1901 153.363 12.1536 154.223 13.4297C155.082 14.7057 155.512 16.2812 155.512 18.1562C155.512 19.7188 155.258 21.0469 154.75 22.1406C154.242 23.2344 153.526 24.1393 152.602 24.8555C151.69 25.5716 150.622 26.151 149.398 26.5938L147.328 27.7266H138.031L137.992 22.7852H144.906C145.857 22.7852 146.645 22.6159 147.27 22.2773C147.895 21.9388 148.363 21.4635 148.676 20.8516C149.001 20.2266 149.164 19.4974 149.164 18.6641C149.164 17.8047 149.001 17.0625 148.676 16.4375C148.35 15.8125 147.868 15.3372 147.23 15.0117C146.605 14.6732 145.824 14.5039 144.887 14.5039H140.336V38H133.969V9.5625ZM149.711 38L143.324 25.3633L150.043 25.3438L156.527 37.707V38H149.711ZM168.832 38H162.582L162.621 33.0781H168.832C170.251 33.0781 171.449 32.7526 172.426 32.1016C173.402 31.4375 174.145 30.4609 174.652 29.1719C175.16 27.8698 175.414 26.2878 175.414 24.4258V23.1172C175.414 21.7109 175.271 20.474 174.984 19.4062C174.698 18.3255 174.275 17.4206 173.715 16.6914C173.155 15.9622 172.458 15.4154 171.625 15.0508C170.805 14.6862 169.861 14.5039 168.793 14.5039H162.465V9.5625H168.793C170.72 9.5625 172.478 9.88802 174.066 10.5391C175.668 11.1901 177.048 12.1211 178.207 13.332C179.379 14.543 180.284 15.9753 180.922 17.6289C181.56 19.2826 181.879 21.125 181.879 23.1562V24.4258C181.879 26.444 181.56 28.2865 180.922 29.9531C180.284 31.6068 179.379 33.0391 178.207 34.25C177.048 35.4479 175.674 36.3724 174.086 37.0234C172.497 37.6745 170.746 38 168.832 38ZM166.195 9.5625V38H159.828V9.5625H166.195ZM80.9844 62.0449L84.0996 48.3594H85.8936L86.6025 50.0566L83.2832 64H81.3174L80.9844 62.0449ZM79.7705 48.3594L82.3809 62.1094L81.9297 64H79.6953L76.3008 48.3594H79.7705ZM88.8262 62.0342L91.4043 48.3594H94.8633L91.4688 64H89.2559L88.8262 62.0342ZM87.0645 48.3594L90.2227 62.1201L89.8574 64H87.9023L84.5293 50.0459L85.2705 48.3594H87.0645ZM109.516 55.8359V56.5342C109.516 57.723 109.351 58.79 109.021 59.7354C108.699 60.6807 108.237 61.4863 107.636 62.1523C107.041 62.8184 106.332 63.3304 105.509 63.6885C104.692 64.0394 103.786 64.2148 102.791 64.2148C101.796 64.2148 100.886 64.0394 100.062 63.6885C99.2389 63.3304 98.5228 62.8184 97.9141 62.1523C97.3125 61.4863 96.847 60.6807 96.5176 59.7354C96.1882 58.79 96.0234 57.723 96.0234 56.5342V55.8359C96.0234 54.6471 96.1882 53.5801 96.5176 52.6348C96.847 51.6823 97.3089 50.873 97.9033 50.207C98.5049 49.541 99.2174 49.0326 100.041 48.6816C100.865 48.3236 101.774 48.1445 102.77 48.1445C103.765 48.1445 104.674 48.3236 105.498 48.6816C106.322 49.0326 107.031 49.541 107.625 50.207C108.227 50.873 108.692 51.6823 109.021 52.6348C109.351 53.5801 109.516 54.6471 109.516 55.8359ZM105.981 56.5342V55.8145C105.981 55.0195 105.91 54.3177 105.767 53.709C105.623 53.0931 105.416 52.5775 105.144 52.1621C104.871 51.7467 104.535 51.4352 104.134 51.2275C103.733 51.0127 103.278 50.9053 102.77 50.9053C102.24 50.9053 101.778 51.0127 101.384 51.2275C100.99 51.4352 100.657 51.7467 100.385 52.1621C100.12 52.5775 99.9157 53.0931 99.7725 53.709C99.6364 54.3177 99.5684 55.0195 99.5684 55.8145V56.5342C99.5684 57.3219 99.6364 58.0238 99.7725 58.6396C99.9157 59.2484 100.123 59.764 100.396 60.1865C100.668 60.609 101.001 60.9277 101.395 61.1426C101.796 61.3574 102.261 61.4648 102.791 61.4648C103.299 61.4648 103.751 61.3574 104.145 61.1426C104.546 60.9277 104.882 60.609 105.154 60.1865C105.426 59.764 105.631 59.2484 105.767 58.6396C105.91 58.0238 105.981 57.3219 105.981 56.5342ZM111.664 48.3594H117.669C118.865 48.3594 119.9 48.5384 120.773 48.8965C121.654 49.2546 122.331 49.7845 122.804 50.4863C123.276 51.1882 123.513 52.0547 123.513 53.0859C123.513 53.9453 123.373 54.6758 123.094 55.2773C122.814 55.8789 122.421 56.3766 121.912 56.7705C121.411 57.1644 120.824 57.4831 120.15 57.7266L119.012 58.3496H113.898L113.877 55.6318H117.68C118.202 55.6318 118.636 55.5387 118.979 55.3525C119.323 55.1663 119.581 54.9049 119.753 54.5684C119.932 54.2246 120.021 53.8236 120.021 53.3652C120.021 52.8926 119.932 52.4844 119.753 52.1406C119.574 51.7969 119.309 51.5355 118.958 51.3564C118.614 51.1702 118.185 51.0771 117.669 51.0771H115.166V64H111.664V48.3594ZM120.322 64L116.81 57.0498L120.505 57.0391L124.071 63.8389V64H120.322ZM129.389 48.3594V64H125.887V48.3594H129.389ZM138.734 48.3594L132.611 56.1797L129.045 60.0469L128.411 56.792L130.764 53.4189L134.438 48.3594H138.734ZM134.674 64L130.355 56.8564L133.02 54.7832L138.82 64H134.674ZM150.551 61.293V64H142.226V61.293H150.551ZM143.418 48.3594V64H139.916V48.3594H143.418ZM149.477 54.6543V57.2754H142.226V54.6543H149.477ZM150.562 48.3594V51.0771H142.226V48.3594H150.562ZM152.27 48.3594H158.274C159.47 48.3594 160.505 48.5384 161.379 48.8965C162.26 49.2546 162.937 49.7845 163.409 50.4863C163.882 51.1882 164.118 52.0547 164.118 53.0859C164.118 53.9453 163.979 54.6758 163.699 55.2773C163.42 55.8789 163.026 56.3766 162.518 56.7705C162.016 57.1644 161.429 57.4831 160.756 57.7266L159.617 58.3496H154.504L154.482 55.6318H158.285C158.808 55.6318 159.241 55.5387 159.585 55.3525C159.929 55.1663 160.187 54.9049 160.358 54.5684C160.537 54.2246 160.627 53.8236 160.627 53.3652C160.627 52.8926 160.537 52.4844 160.358 52.1406C160.179 51.7969 159.914 51.5355 159.563 51.3564C159.22 51.1702 158.79 51.0771 158.274 51.0771H155.771V64H152.27V48.3594ZM160.928 64L157.415 57.0498L161.11 57.0391L164.677 63.8389V64H160.928ZM178.008 61.293V64H166.804V61.293H178.008ZM177.89 50.2285L168.447 64H165.955V62.0879L175.483 48.3594H177.89V50.2285ZM176.729 48.3594V51.0771H165.934V48.3594H176.729Z" fill="black"/>
<path d="M51.4219 28.2188V40.0312H16.0781V28.2188H51.4219ZM20.9062 0.75V69H5.625V0.75H20.9062ZM61.9688 0.75V69H46.7344V0.75H61.9688Z" fill="#F58909"/>
</svg>
